<svg width="16" height="20" viewBox="0 0 16 20" fill="none" xmlns="http://www.w3.org/2000/svg">
<path d="M14.8363 4.78526L0.482666 9.86473L1.88156 5.04579L16 0L14.8363 4.78526Z" fill="url(#paint0_linear_1819_4960)"/>
<path d="M0.000244141 16.2332L5.40078 14.2344L11.4841 18.1716L5.83534 19.9997L0.000244141 16.2332Z" fill="#D9D9D9"/>
<path d="M1.42742 11.5693L11.4836 18.1717L5.83485 19.9888L-0.000244141 16.2334L1.42742 11.5693Z" fill="url(#paint1_linear_1819_4960)"/>
<path d="M7.26251 15.3853L-0.000244141 16.2334L1.42742 11.5693L7.26251 15.3853Z" fill="#017959"/>
<path d="M12.4147 11.8722L13.9046 6.96582L1.42742 11.5694L-0.000244141 16.2334L12.4147 11.8722Z" fill="url(#paint2_linear_1819_4960)"/>
<path d="M13.0977 9.57052L13.9047 6.96582L1.42752 11.5694L1.11719 12.5991L13.0977 9.57052Z" fill="url(#paint3_linear_1819_4960)"/>
<defs>
<linearGradient id="paint0_linear_1819_4960" x1="0.558986" y1="8.54073" x2="15.9976" y2="1.03961" gradientUnits="userSpaceOnUse">
<stop stop-color="#00B988"/>
<stop offset="1" stop-color="#00FFBC"/>
</linearGradient>
<linearGradient id="paint1_linear_1819_4960" x1="2.35852" y1="14.2345" x2="7.46095" y2="18.8409" gradientUnits="userSpaceOnUse">
<stop offset="0.0652429" stop-color="#01B081"/>
<stop offset="0.789675" stop-color="#007959"/>
</linearGradient>
<linearGradient id="paint2_linear_1819_4960" x1="6.95218" y1="8.78306" x2="9.15461" y2="14.2122" gradientUnits="userSpaceOnUse">
<stop offset="0.167047" stop-color="#03BA89"/>
<stop offset="0.451042" stop-color="#00CE98"/>
<stop offset="1" stop-color="#00E7AA"/>
</linearGradient>
<linearGradient id="paint3_linear_1819_4960" x1="6.95228" y1="8.78306" x2="9.15471" y2="14.2122" gradientUnits="userSpaceOnUse">
<stop offset="0.136286" stop-color="#03B888"/>
<stop offset="0.971875" stop-color="#00D39B"/>
</linearGradient>
</defs>
</svg>
