<svg width="20" height="40" viewBox="0 0 501 673" fill="none" xmlns="http://www.w3.org/2000/svg">
<path d="M464.63 161.633L16.0796 332.146L59.795 170.379L500.996 0.99707L464.63 161.633Z" fill="url(#paint0_linear_1754_5195)"/>
<path d="M1.00732 545.939L169.774 478.84L359.878 611.007L183.354 672.375L1.00732 545.939Z" fill="#D9D9D9"/>
<path d="M45.6104 389.365L359.866 611L183.343 671.999L0.995972 545.932L45.6104 389.365Z" fill="url(#paint1_linear_1754_5195)"/>
<path d="M227.957 517.463L0.995972 545.932L45.6103 389.365L227.957 517.463Z" fill="#017959"/>
<path d="M388.964 399.527L435.523 234.826L45.6104 389.362L0.995972 545.929L388.964 399.527Z" fill="url(#paint2_linear_1754_5195)"/>
<path d="M410.303 322.263L435.522 234.826L45.6094 389.362L35.9116 423.931L410.303 322.263Z" fill="url(#paint3_linear_1754_5195)"/>
<defs>
<linearGradient id="paint0_linear_1754_5195" x1="18.4646" y1="287.7" x2="513.533" y2="63.7788" gradientUnits="userSpaceOnUse">
<stop stop-color="#00B988"/>
<stop offset="1" stop-color="#00FFBC"/>
</linearGradient>
<linearGradient id="paint1_linear_1754_5195" x1="74.7074" y1="478.833" x2="244.317" y2="621.377" gradientUnits="userSpaceOnUse">
<stop offset="0.0652429" stop-color="#01B081"/>
<stop offset="0.789675" stop-color="#007959"/>
</linearGradient>
<linearGradient id="paint2_linear_1754_5195" x1="218.259" y1="295.829" x2="295.988" y2="474.201" gradientUnits="userSpaceOnUse">
<stop offset="0.167047" stop-color="#03BA89"/>
<stop offset="0.451042" stop-color="#00CE98"/>
<stop offset="1" stop-color="#00E7AA"/>
</linearGradient>
<linearGradient id="paint3_linear_1754_5195" x1="218.258" y1="295.829" x2="295.987" y2="474.201" gradientUnits="userSpaceOnUse">
<stop offset="0.136286" stop-color="#03B888"/>
<stop offset="0.971875" stop-color="#00D39B"/>
</linearGradient>
</defs>
</svg>
