<svg width="51" height="68" viewBox="0 0 51 68" fill="none" xmlns="http://www.w3.org/2000/svg">
<path d="M46.536 16.5424L1.82886 33.516L6.18598 17.413L50.1606 0.552002L46.536 16.5424Z" fill="url(#paint0_linear_284_3154)"/>
<path d="M0.326477 54.7975L17.1475 48.1182L36.0952 61.2747L18.501 67.3835L0.326477 54.7975Z" fill="#D9D9D9"/>
<path d="M4.7721 39.2118L36.0941 61.2743L18.4999 67.3464L0.325378 54.7971L4.7721 39.2118Z" fill="url(#paint1_linear_284_3154)"/>
<path d="M22.9466 51.9632L0.325378 54.7971L4.7721 39.2118L22.9466 51.9632Z" fill="#D6A91E"/>
<path d="M38.9942 40.2236L43.6347 23.8286L4.7721 39.2118L0.325378 54.7971L38.9942 40.2236Z" fill="url(#paint2_linear_284_3154)"/>
<path d="M41.1212 32.5324L43.6348 23.8286L4.77213 39.2118L3.80554 42.6529L41.1212 32.5324Z" fill="url(#paint3_linear_284_3154)"/>
<defs>
<linearGradient id="paint0_linear_284_3154" x1="2.06657" y1="29.0917" x2="51.3889" y2="6.75482" gradientUnits="userSpaceOnUse">
<stop stop-color="#2DB656"/>
<stop offset="1" stop-color="#74DC65"/>
</linearGradient>
<linearGradient id="paint1_linear_284_3154" x1="7.67221" y1="48.1178" x2="24.5596" y2="62.3283" gradientUnits="userSpaceOnUse">
<stop offset="0.0652429" stop-color="#E3B525"/>
<stop offset="0.789675" stop-color="#FFC81B"/>
</linearGradient>
<linearGradient id="paint2_linear_284_3154" x1="21.9801" y1="29.9011" x2="29.7109" y2="47.6641" gradientUnits="userSpaceOnUse">
<stop offset="0.167047" stop-color="#1D8D2B"/>
<stop offset="0.43085" stop-color="#2DA150"/>
<stop offset="0.807736" stop-color="#2BB857"/>
</linearGradient>
<linearGradient id="paint3_linear_284_3154" x1="21.9801" y1="29.901" x2="29.7109" y2="47.6641" gradientUnits="userSpaceOnUse">
<stop offset="0.0581062" stop-color="#218F2F"/>
</linearGradient>
</defs>
</svg>
